<?xml version="1.0" encoding="UTF-8" standalone="no"?>
<!-- Created with Inkscape (http://www.inkscape.org/) -->

<svg
   xmlns:dc="http://purl.org/dc/elements/1.1/"
   xmlns:cc="http://creativecommons.org/ns#"
   xmlns:rdf="http://www.w3.org/1999/02/22-rdf-syntax-ns#"
   xmlns:svg="http://www.w3.org/2000/svg"
   xmlns="http://www.w3.org/2000/svg"
   xmlns:sodipodi="http://sodipodi.sourceforge.net/DTD/sodipodi-0.dtd"
   xmlns:inkscape="http://www.inkscape.org/namespaces/inkscape"
   width="440"
   height="280"
   viewBox="0 0 116.41666 74.083331"
   version="1.1"
   id="svg8"
   inkscape:version="0.92.4 5da689c313, 2019-01-14"
   sodipodi:docname="icon.svg"
   inkscape:export-filename="/home/rockjock/Web/hound/pub/icons/icon.png"
   inkscape:export-xdpi="300"
   inkscape:export-ydpi="300">
  <defs
     id="defs2">
    <filter
       style="color-interpolation-filters:sRGB"
       inkscape:label="Invert"
       id="filter949">
      <feColorMatrix
         values="1 0 0 0 0 0 1 0 0 0 0 0 1 0 0 -0.21 -0.72 -0.07 2 0 "
         result="fbSourceGraphic"
         id="feColorMatrix947" />
      <feColorMatrix
         result="fbSourceGraphicAlpha"
         in="fbSourceGraphic"
         values="0 0 0 -1 0 0 0 0 -1 0 0 0 0 -1 0 0 0 0 1 0"
         id="feColorMatrix955" />
      <feColorMatrix
         id="feColorMatrix957"
         values="1 0 0 0 0 0 1 0 0 0 0 0 1 0 0 0.21 0.72 0.07 1 0 "
         result="color2"
         in="fbSourceGraphic" />
    </filter>
    <filter
       style="color-interpolation-filters:sRGB"
       inkscape:label="Invert"
       id="filter953">
      <feColorMatrix
         values="1 0 0 0 0 0 1 0 0 0 0 0 1 0 0 -0.21 -0.72 -0.07 2 0 "
         result="fbSourceGraphic"
         id="feColorMatrix951" />
      <feColorMatrix
         result="fbSourceGraphicAlpha"
         in="fbSourceGraphic"
         values="0 0 0 -1 0 0 0 0 -1 0 0 0 0 -1 0 0 0 0 1 0"
         id="feColorMatrix959" />
      <feColorMatrix
         id="feColorMatrix961"
         values="1 0 0 0 0 0 1 0 0 0 0 0 1 0 0 0.21 0.72 0.07 1 0 "
         result="color2"
         in="fbSourceGraphic" />
    </filter>
  </defs>
  <sodipodi:namedview
     id="base"
     pagecolor="#ffffff"
     bordercolor="#666666"
     borderopacity="1.0"
     inkscape:pageopacity="0.0"
     inkscape:pageshadow="2"
     inkscape:zoom="1.0848796"
     inkscape:cx="158.77136"
     inkscape:cy="243.25527"
     inkscape:document-units="mm"
     inkscape:current-layer="flowRoot19"
     showgrid="false"
     showguides="true"
     fit-margin-top="0"
     fit-margin-left="0"
     fit-margin-right="0"
     fit-margin-bottom="0"
     inkscape:guide-bbox="true"
     inkscape:window-width="1280"
     inkscape:window-height="969"
     inkscape:window-x="0"
     inkscape:window-y="27"
     inkscape:window-maximized="1"
     units="px" />
  <metadata
     id="metadata5">
    <rdf:RDF>
      <cc:Work
         rdf:about="">
        <dc:format>image/svg+xml</dc:format>
        <dc:type
           rdf:resource="http://purl.org/dc/dcmitype/StillImage" />
        <dc:title></dc:title>
      </cc:Work>
    </rdf:RDF>
  </metadata>
  <g
     inkscape:label="Layer 1"
     inkscape:groupmode="layer"
     id="layer1"
     transform="translate(7.6752358e-7,-222.91667)">
    <g
       id="g852"
       transform="translate(0.3610609,1.0831824)">
      <g
         id="g1010">
        <g
           id="g1031"
           transform="translate(27.440612,-149.47912)">
          <g
             aria-label="news hound"
             transform="matrix(0.58488437,0,0,0.58488437,-41.441426,258.84047)"
             style="font-style:normal;font-variant:normal;font-weight:800;font-stretch:normal;font-size:40px;line-height:1.25;font-family:'Alegreya Sans';-inkscape-font-specification:'Alegreya Sans Ultra-Bold';letter-spacing:0px;word-spacing:0px;fill:#000000;fill-opacity:1;stroke:none"
             id="flowRoot19">
            <rect
               style="opacity:1;fill:#ffffff;fill-opacity:1;stroke:none;stroke-width:0;stroke-miterlimit:4;stroke-dasharray:none;stroke-opacity:1"
               id="rect61"
               width="199.04219"
               height="126.66322"
               x="23.320425"
               y="192.29807" />
            <path
               d="m 33.886395,249.3194 q 1.342077,-0.3885 3.461147,-0.70636 2.119071,-0.35318 4.450048,-0.35318 2.366295,0 3.920281,0.63572 1.589301,0.60041 2.507565,1.73058 0.918264,1.13017 1.30676,2.68416 0.388496,1.55398 0.388496,3.46114 v 10.4894 h -5.262357 v -9.85367 q 0,-2.54289 -0.671039,-3.60243 -0.671038,-1.05953 -2.507567,-1.05953 -0.565084,0 -1.200806,0.0707 -0.635722,0.0354 -1.130171,0.10595 v 14.33905 h -5.262357 z"
               style="font-style:normal;font-variant:normal;font-weight:bold;font-stretch:normal;font-family:Ubuntu;-inkscape-font-specification:'Ubuntu Bold';fill:#ff0000;stroke-width:0.88294595"
               id="path27"
               inkscape:connector-curvature="0" />
            <path
               d="m 53.03662,258.11354 q 0,-2.47225 0.741675,-4.30878 0.776992,-1.87184 2.013116,-3.10797 1.236125,-1.23612 2.825428,-1.87184 1.62462,-0.63572 3.319876,-0.63572 3.955597,0 6.251257,2.43693 2.295659,2.40161 2.295659,7.09888 0,0.45913 -0.03531,1.02422 -0.03531,0.52977 -0.07064,0.95358 H 58.440249 q 0.17659,1.62462 1.518667,2.57821 1.342078,0.95358 3.602419,0.95358 1.448031,0 2.825427,-0.24723 1.412714,-0.28254 2.29566,-0.67104 l 0.706356,4.27346 q -0.423813,0.21191 -1.13017,0.42381 -0.706357,0.21191 -1.589303,0.35318 -0.847628,0.1766 -1.836527,0.28254 -0.988899,0.10596 -1.9778,0.10596 -2.507566,0 -4.379411,-0.74168 -1.836528,-0.74166 -3.072651,-2.0131 -1.200807,-1.30677 -1.801211,-3.07266 -0.565085,-1.7659 -0.565085,-3.81433 z m 12.361243,-2.01311 q -0.03531,-0.67104 -0.247225,-1.30677 -0.17659,-0.63572 -0.600403,-1.13016 -0.388497,-0.49446 -1.024218,-0.81232 -0.600402,-0.31786 -1.518667,-0.31786 -0.882946,0 -1.518666,0.31786 -0.635721,0.28255 -1.059535,0.777 -0.423814,0.49445 -0.67104,1.16548 -0.211906,0.63573 -0.31786,1.30677 z"
               style="font-style:normal;font-variant:normal;font-weight:bold;font-stretch:normal;font-family:Ubuntu;-inkscape-font-specification:'Ubuntu Bold';fill:#ff0000;stroke-width:0.88294595"
               id="path29"
               inkscape:connector-curvature="0" />
            <path
               d="m 85.047504,256.59487 q -0.706356,2.68416 -1.518666,5.333 -0.776993,2.64884 -1.659939,5.33299 h -4.096868 q -0.635722,-1.48335 -1.377397,-3.53179 -0.741674,-2.04843 -1.553984,-4.45004 -0.776993,-2.43693 -1.62462,-5.12109 -0.81231,-2.71946 -1.589303,-5.47426 h 5.5449 q 0.282543,1.27144 0.600404,2.79011 0.353178,1.48335 0.706356,3.07265 0.388496,1.5893 0.776993,3.21392 0.423813,1.5893 0.847628,3.07266 0.459132,-1.55399 0.882945,-3.17861 0.459132,-1.62463 0.847628,-3.17861 0.423815,-1.5893 0.776993,-3.03732 0.388497,-1.48336 0.671039,-2.7548 h 3.814326 q 0.282543,1.27144 0.635721,2.7548 0.353179,1.44802 0.741675,3.03732 0.388496,1.55398 0.81231,3.17861 0.423814,1.62462 0.882945,3.17861 0.423815,-1.48336 0.847629,-3.07266 0.423815,-1.62462 0.776992,-3.21392 0.388497,-1.5893 0.706357,-3.07265 0.353178,-1.51867 0.635721,-2.79011 h 5.474268 q -0.77699,2.7548 -1.624624,5.47426 -0.812313,2.68416 -1.62462,5.12109 -0.776992,2.40161 -1.553985,4.45004 -0.741674,2.04844 -1.377396,3.53179 h -4.096868 q -0.882947,-2.68415 -1.730574,-5.33299 -0.847629,-2.64884 -1.553986,-5.333 z"
               style="font-style:normal;font-variant:normal;font-weight:bold;font-stretch:normal;font-family:Ubuntu;-inkscape-font-specification:'Ubuntu Bold';fill:#ff0000;stroke-width:0.88294595"
               id="path31"
               inkscape:connector-curvature="0" />
            <path
               d="m 105.941,263.48186 q 1.44804,0 2.04844,-0.28255 0.60041,-0.28254 0.60041,-1.09486 0,-0.63571 -0.777,-1.09484 -0.77699,-0.49446 -2.3663,-1.09486 -1.23611,-0.45913 -2.26034,-0.95358 -0.9889,-0.49446 -1.69525,-1.16549 -0.70637,-0.70635 -1.09486,-1.65994 -0.3885,-0.95357 -0.3885,-2.29566 0,-2.61352 1.94248,-4.13219 1.94249,-1.51866 5.33301,-1.51866 1.69525,0 3.24923,0.31786 1.55399,0.28254 2.47225,0.63572 l -0.91826,4.09687 q -0.91827,-0.31787 -2.01312,-0.56508 -1.05954,-0.24723 -2.40161,-0.24723 -2.47225,0 -2.47225,1.37739 0,0.31787 0.10595,0.56509 0.10595,0.24722 0.42382,0.49445 0.31786,0.2119 0.84762,0.49445 0.56509,0.24722 1.41272,0.56509 1.73056,0.63571 2.86074,1.27143 1.13017,0.60041 1.7659,1.34209 0.67103,0.70635 0.91826,1.5893 0.28254,0.88295 0.28254,2.04843 0,2.75479 -2.08375,4.16751 -2.04844,1.41271 -5.82745,1.41271 -2.47224,0 -4.13217,-0.42381 -1.62464,-0.42381 -2.260362,-0.70636 l 0.882952,-4.27346 q 1.34209,0.52977 2.7548,0.84763 1.41271,0.28255 2.7901,0.28255 z"
               style="font-style:normal;font-variant:normal;font-weight:bold;font-stretch:normal;font-family:Ubuntu;-inkscape-font-specification:'Ubuntu Bold';fill:#ff0000;stroke-width:0.88294595"
               id="path33"
               inkscape:connector-curvature="0" />
            <path
               d="m 115.81476,267.26086 v -26.55901 l 5.26236,-0.84763 v 8.9001 q 0.52977,-0.17659 1.34207,-0.31787 0.84764,-0.17659 1.62463,-0.17659 2.26034,0 3.74369,0.63572 1.51867,0.60041 2.40161,1.73058 0.91827,1.13017 1.27144,2.68416 0.3885,1.55398 0.3885,3.46114 v 10.4894 h -5.26236 v -9.85367 q 0,-2.54289 -0.67104,-3.60243 -0.63572,-1.05953 -2.4016,-1.05953 -0.70636,0 -1.34208,0.14127 -0.6004,0.10596 -1.09486,0.24723 v 14.12713 z"
               style="font-style:normal;font-variant:normal;font-weight:bold;font-stretch:normal;font-family:Ubuntu;-inkscape-font-specification:'Ubuntu Bold';fill:#666666;stroke-width:0.88294595"
               id="path35"
               inkscape:connector-curvature="0" />
            <path
               d="m 171.92897,266.62514 q -1.34208,0.38849 -3.46115,0.70636 -2.11907,0.35318 -4.45005,0.35318 -2.36629,0 -3.95559,-0.63573 -1.55398,-0.63572 -2.47225,-1.76588 -0.91827,-1.16549 -1.30676,-2.75479 -0.3885,-1.58932 -0.3885,-3.49647 v -10.34813 h 5.26235 v 9.71241 q 0,2.54287 0.67104,3.67305 0.67105,1.13017 2.50758,1.13017 0.56507,0 1.2008,-0.0354 0.63573,-0.0707 1.13017,-0.14128 V 248.6836 h 5.26236 z"
               style="font-style:normal;font-variant:normal;font-weight:bold;font-stretch:normal;font-family:Ubuntu;-inkscape-font-specification:'Ubuntu Bold';fill:#666666;stroke-width:0.88294595"
               id="path39"
               inkscape:connector-curvature="0" />
            <path
               d="m 175.36808,249.3194 q 1.34208,-0.3885 3.46115,-0.70636 2.11908,-0.35318 4.45006,-0.35318 2.36629,0 3.92027,0.63572 1.58931,0.60041 2.50757,1.73058 0.91827,1.13017 1.30676,2.68416 0.3885,1.55398 0.3885,3.46114 v 10.4894 h -5.26236 v -9.85367 q 0,-2.54289 -0.67104,-3.60243 -0.67104,-1.05953 -2.50757,-1.05953 -0.56508,0 -1.2008,0.0707 -0.63572,0.0354 -1.13018,0.10595 v 14.33905 h -5.26236 z"
               style="font-style:normal;font-variant:normal;font-weight:bold;font-stretch:normal;font-family:Ubuntu;-inkscape-font-specification:'Ubuntu Bold';fill:#666666;stroke-width:0.88294595"
               id="path41"
               inkscape:connector-curvature="0" />
            <path
               d="m 199.51844,257.83099 q 0,2.43694 1.09487,3.92029 1.09484,1.48335 3.24923,1.48335 0.70636,0 1.30677,-0.0354 0.6004,-0.0707 0.9889,-0.14127 v -9.57112 q -0.49446,-0.31787 -1.30676,-0.52977 -0.777,-0.21191 -1.58931,-0.21191 -3.7437,0 -3.7437,5.08576 z m 11.90212,8.82947 q -0.70635,0.2119 -1.62461,0.42381 -0.91827,0.17659 -1.94249,0.31786 -0.9889,0.14128 -2.04843,0.21191 -1.02423,0.10595 -1.9778,0.10595 -2.29566,0 -4.09687,-0.67104 -1.80121,-0.67103 -3.03734,-1.90716 -1.23612,-1.27144 -1.90716,-3.03734 -0.63572,-1.8012 -0.63572,-4.02623 0,-2.26033 0.56509,-4.06154 0.56508,-1.83653 1.62462,-3.10797 1.05953,-1.27144 2.5782,-1.94248 1.55398,-0.67105 3.53178,-0.67105 1.09485,0 1.94248,0.21191 0.88295,0.21191 1.7659,0.60041 v -8.40565 l 5.26235,-0.84763 z"
               style="font-style:normal;font-variant:normal;font-weight:bold;font-stretch:normal;font-family:Ubuntu;-inkscape-font-specification:'Ubuntu Bold';fill:#666666;stroke-width:0.88294595"
               id="path43"
               inkscape:connector-curvature="0" />
          </g>
          <path
             style="fill:#666666;stroke-width:0.02265082"
             d="m 45.326411,415.20956 c -0.142293,-0.025 -0.473595,-0.14336 -0.901282,-0.32194 -0.774056,-0.32323 -1.056909,-0.39296 -1.497897,-0.36935 -0.43802,0.0234 -0.671624,0.0881 -1.714383,0.47436 -0.491309,0.182 -0.881488,0.23037 -1.233948,0.15301 -0.530358,-0.11639 -0.896534,-0.65195 -0.85631,-1.25239 0.02471,-0.36882 0.246966,-1.10659 0.484065,-1.6068 0.480818,-1.01439 1.184933,-1.84361 1.869315,-2.20144 0.443668,-0.23196 1.154141,-0.37676 1.578366,-0.32167 0.894827,0.11621 1.553764,0.59422 2.381816,1.7278 0.503248,0.68895 0.808872,1.21486 1.0341,1.77945 0.198836,0.49843 0.235417,1.04564 0.09174,1.37228 -0.163766,0.37231 -0.767153,0.64905 -1.235582,0.56669 z m -6.753379,-3.90135 c -0.605586,-0.17386 -1.147455,-0.71767 -1.405985,-1.41104 -0.11337,-0.30405 -0.164729,-0.56393 -0.1797,-0.9093 -0.01542,-0.35569 0.0197,-0.56551 0.14013,-0.83712 0.133443,-0.30097 0.31606,-0.47766 0.598417,-0.57899 0.492755,-0.17684 0.98929,-0.004 1.491234,0.51818 0.519056,0.5403 0.779231,1.24222 0.738615,1.99265 -0.0072,0.13443 -0.02894,0.30666 -0.04816,0.38272 -0.08838,0.34999 -0.318128,0.66389 -0.585831,0.80039 -0.131751,0.0671 -0.169342,0.0754 -0.37048,0.0808 -0.166861,0.004 -0.26316,-0.006 -0.378246,-0.0383 z m 7.73749,-0.14005 c -0.304837,-0.066 -0.593419,-0.31831 -0.751343,-0.65673 -0.136583,-0.2927 -0.175988,-0.51608 -0.158569,-0.89886 0.034,-0.7472 0.29995,-1.37797 0.78019,-1.85046 0.273274,-0.26888 0.616884,-0.44201 0.967803,-0.48766 0.431204,-0.056 0.817131,0.18608 1.037548,0.65102 0.147913,0.312 0.178297,0.4535 0.176589,0.82245 -0.0016,0.35477 -0.04284,0.61284 -0.146379,0.9169 -0.20446,0.60043 -0.549299,1.05057 -0.998167,1.30296 -0.286557,0.16114 -0.683972,0.24887 -0.907672,0.20038 z m -5.502544,-2.99739 c -0.439785,-0.10822 -0.950064,-0.60173 -1.22499,-1.18473 -0.270592,-0.57382 -0.354815,-1.43305 -0.197816,-2.01808 0.09583,-0.3571 0.32022,-0.69812 0.581487,-0.88374 0.320974,-0.22804 0.722052,-0.24009 1.119932,-0.0337 0.501227,0.26006 0.86682,0.7342 1.054105,1.36709 0.122863,0.41519 0.147734,0.58581 0.147734,1.01352 0,0.33557 -0.0074,0.4217 -0.05183,0.59936 -0.142547,0.57058 -0.469821,0.99023 -0.873828,1.12047 -0.142806,0.0461 -0.409437,0.0555 -0.554791,0.0198 z m 3.241102,-0.01 c -0.219606,-0.0654 -0.394568,-0.17504 -0.568629,-0.35615 -0.20216,-0.21034 -0.295364,-0.36836 -0.392802,-0.66593 -0.159925,-0.48844 -0.159001,-1.02846 0.0029,-1.69187 0.20342,-0.83355 0.715296,-1.41169 1.395356,-1.57601 0.214117,-0.0517 0.366623,-0.0284 0.616121,0.0943 0.521206,0.25637 0.784083,0.70595 0.85251,1.45799 0.03203,0.35204 -7.65e-4,0.79222 -0.08391,1.12744 -0.06739,0.27159 -0.2527,0.67257 -0.409721,0.88657 -0.142515,0.19423 -0.425873,0.46968 -0.583593,0.56732 -0.262853,0.1627 -0.595875,0.22555 -0.828235,0.15631 z"
             id="path1035"
             inkscape:connector-curvature="0" />
        </g>
      </g>
    </g>
  </g>
</svg>
