<?xml version="1.0" encoding="UTF-8" standalone="no"?>
<!-- Created with Inkscape (http://www.inkscape.org/) -->

<svg
   xmlns:dc="http://purl.org/dc/elements/1.1/"
   xmlns:cc="http://creativecommons.org/ns#"
   xmlns:rdf="http://www.w3.org/1999/02/22-rdf-syntax-ns#"
   xmlns:svg="http://www.w3.org/2000/svg"
   xmlns="http://www.w3.org/2000/svg"
   xmlns:sodipodi="http://sodipodi.sourceforge.net/DTD/sodipodi-0.dtd"
   xmlns:inkscape="http://www.inkscape.org/namespaces/inkscape"
   width="68.198807mm"
   height="53.499123mm"
   viewBox="0 0 68.198807 53.499123"
   version="1.1"
   id="svg8"
   inkscape:export-filename="/home/rockjock/Web/hound/pub/icons/news-hound.png"
   inkscape:export-xdpi="300"
   inkscape:export-ydpi="300"
   inkscape:version="0.92.4 5da689c313, 2019-01-14"
   sodipodi:docname="news-hound.svg">
  <defs
     id="defs2" />
  <sodipodi:namedview
     id="base"
     pagecolor="#ffffff"
     bordercolor="#666666"
     borderopacity="1.0"
     inkscape:pageopacity="0.0"
     inkscape:pageshadow="2"
     inkscape:zoom="1.0848795"
     inkscape:cx="124.62634"
     inkscape:cy="122.52049"
     inkscape:document-units="mm"
     inkscape:current-layer="g21"
     showgrid="false"
     fit-margin-top="0"
     fit-margin-left="0"
     fit-margin-right="0"
     fit-margin-bottom="0"
     inkscape:window-width="1280"
     inkscape:window-height="969"
     inkscape:window-x="0"
     inkscape:window-y="27"
     inkscape:window-maximized="1" />
  <metadata
     id="metadata5">
    <rdf:RDF>
      <cc:Work
         rdf:about="">
        <dc:format>image/svg+xml</dc:format>
        <dc:type
           rdf:resource="http://purl.org/dc/dcmitype/StillImage" />
        <dc:title></dc:title>
      </cc:Work>
    </rdf:RDF>
  </metadata>
  <g
     inkscape:label="Layer 1"
     inkscape:groupmode="layer"
     id="layer1"
     transform="translate(-57.483453,-23.395531)">
    <g
       id="g21"
       transform="translate(-4.5955518,-11.233572)">
      <path
         style="fill:#b3b3b3;stroke-width:0.26458335"
         d="m 113.59811,73.478106 c 8.11859,-0.23097 14.80586,-0.65471 16.00729,-1.01429 0.43656,-0.13067 0.73422,-0.25692 0.66146,-0.28056 -0.48226,-0.1567 -1.42374,-0.29636 -2.97597,-0.44144 -0.98194,-0.0918 -1.89907,-0.3039 -2.03807,-0.47138 -0.15942,-0.19209 -0.1616,-0.93494 -0.006,-2.0122 0.36506,-2.52589 0.3109,-4.67331 -0.13985,-5.54497 -0.39485,-0.76356 -1.63465,-1.31723 -2.95716,-1.32062 -0.48384,-10e-4 -0.62971,-0.23997 -0.90889,-1.48746 -0.1829,-0.81729 -0.73952,-2.15674 -1.23693,-2.97656 -0.82861,-1.36569 -0.87678,-1.55708 -0.57485,-2.28433 0.98041,-2.36146 2.39421,-5.835937 2.64291,-7.566777 0.28131,-1.95768 0.3109,-6.638124 -0.0879,-6.638124 -2.07535,8.454291 -0.78069,6.299407 -4.72264,12.907141 -0.12695,0.0785 -0.45022,-0.702718 -1.62103,-1.595833 -1.89633,-0.701898 -2.38726,-1.600099 -12.49347,0.10306 -9.829032,1.656447 -9.916644,2.07788 -16.492217,0.01687 -2.455668,-1.57266 -2.402579,-0.441325 -4.392149,-4.209707 -1.346935,-3.976554 -1.734523,-3.82007 -1.835578,-7.02712 -0.104924,-3.32983 -0.5285,-4.50558 -2.129648,-5.9114 -1.650841,-1.44946 -5.245975,-1.45745 -7.958746,-0.0254 -1.217327,0.64263 -2.320457,0.94861 -4.730811,1.3122 -1.728819,0.26079 -3.264056,0.59491 -3.411633,0.74248 -0.697772,0.69778 1.86412,4.08448 3.859949,5.10268 0.567613,0.28957 1.841,0.59013 2.8634,0.67584 2.810518,0.23563 3.09654,0.89787 1.930537,4.46983 -1.030332,3.15633 -0.608031,4.33692 1.551337,4.33692 h 0.906942 l 0.176273,1.94525 c 0.195677,2.15938 0.803733,2.89003 1.837365,5.4173 l 0.684659,1.674 -1.048073,0.99701 c -0.916257,0.87161 -1.04807,1.14586 -1.04807,2.18057 0,1.67361 0.694386,3.80589 1.551959,4.76569 0.625208,0.69972 0.811006,0.77566 1.281591,0.52382 0.576818,-0.30871 1.1352,-1.56455 1.1352,-2.55316 0,-0.31953 -0.243366,-0.80121 -0.540813,-1.0704 -0.297447,-0.26918 -0.505807,-0.7329 -0.463021,-1.03049 0.123243,-0.85718 0.972328,-0.8131 1.913739,0.0994 0.469675,0.45523 1.283677,0.94634 1.808893,1.09136 0.552847,0.15265 1.022543,0.47668 1.115499,0.76955 0.241218,0.76002 -0.799626,2.55932 -1.971598,3.40829 -0.964155,0.69843 -1.260417,0.76032 -4.424585,0.92424 -4.863484,0.25197 -6.285783,0.56007 -4.950635,1.07242 2.503411,0.96064 21.644257,1.54042 43.231274,0.92629 z m 3.70539,-2.68641 c 0.002,-0.6157 1.28874,-3.50457 1.63712,-3.67632 0.52068,-0.25669 3.00551,-0.66271 3.351,-0.54755 0.3813,0.12711 0.39318,1.89992 0.0193,2.88324 -0.55108,1.44945 -0.95805,1.67136 -3.0653,1.67136 -1.37896,0 -1.94301,-0.0961 -1.94214,-0.33073 z m -33.116814,0.19986 c -0.132136,-0.13213 0.918599,-3.47909 1.171659,-3.73215 0.07509,-0.0751 -0.07876,0.008 3.53867,0.1842 5.055786,0.24654 -1.5875,0 2.740682,0.0142 7.719983,-0.56947 6.903813,-0.84058 12.832283,-2.32778 2.83838,-0.939709 1.76013,-0.590202 3.6721,-1.358026 0.77743,-2.6e-4 1.06812,-0.358814 2.15868,0.760446 0.72214,0.74115 2.00455,1.82188 2.84981,2.40162 1.87336,1.28491 1.87097,1.73643 -0.0132,2.48753 -6.04285,1.582938 6.0861,1.493752 -8.33391,1.35653 -9.828717,-0.12582 -12.180647,0.024 -19.273264,0.29753 -0.666973,0.0257 -1.271564,-0.0121 -1.343541,-0.0841 z"
         id="path23"
         inkscape:connector-curvature="0"
         sodipodi:nodetypes="ccccccsccccccccsccscccccccscscccsccsccccccccccccccsccccccccccccccc" />
      <g
         aria-label="newshound"
         transform="matrix(0.32861812,0,0,0.32861812,58.865846,20.968723)"
         style="font-style:normal;font-variant:normal;font-weight:800;font-stretch:normal;font-size:40px;line-height:1.25;font-family:'Alegreya Sans';-inkscape-font-specification:'Alegreya Sans Ultra-Bold';letter-spacing:0px;word-spacing:0px;fill:#000000;fill-opacity:1;stroke:none"
         id="flowRoot9">
        <path
           d="m 9.7831146,181.92439 q 1.5107254,-0.43163 3.9278854,-0.82011 2.41716,-0.38847 5.352283,-0.38847 2.762468,0 4.618502,0.77695 1.856033,0.73378 2.935123,2.11501 1.122252,1.33807 1.553888,3.28043 0.474799,1.8992 0.474799,4.18687 v 12.69009 h -5.222792 v -11.86998 q 0,-1.81287 -0.258981,-3.06462 -0.215818,-1.2949 -0.776944,-2.07185 -0.517963,-0.82011 -1.467562,-1.16541 -0.906435,-0.38848 -2.244505,-0.38848 -0.992763,0 -2.071852,0.12949 -1.079089,0.1295 -1.597052,0.21582 v 18.21503 H 9.7831146 Z"
           style="font-style:normal;font-variant:normal;font-weight:600;font-stretch:normal;font-family:Ubuntu;-inkscape-font-specification:'Ubuntu Semi-Bold';fill:#4d4d4d;stroke-width:1.07908928"
           id="path17"
           inkscape:connector-curvature="0" />
        <path
           d="m 31.899355,192.58579 q 0,-2.97828 0.863272,-5.22279 0.906435,-2.2445 2.373996,-3.71206 1.467562,-1.51073 3.366759,-2.24451 1.899197,-0.77694 3.884721,-0.77694 4.661666,0 7.25148,2.89195 2.632978,2.89196 2.632978,8.63272 0,0.43163 -0.04316,0.99276 0,0.51796 -0.04316,0.9496 H 37.294802 q 0.215818,2.7193 1.899197,4.23003 1.726543,1.46756 4.96381,1.46756 1.899198,0 3.453086,-0.34531 1.597052,-0.34531 2.503487,-0.73378 l 0.690617,4.2732 q -0.431635,0.21581 -1.20858,0.47479 -0.73378,0.21582 -1.726542,0.38848 -0.949599,0.21581 -2.071852,0.34531 -1.122253,0.12949 -2.287669,0.12949 -2.978286,0 -5.179629,-0.86328 -2.201342,-0.90643 -3.625739,-2.46032 -1.424398,-1.59705 -2.115015,-3.71207 -0.690618,-2.15817 -0.690618,-4.70483 z m 15.150414,-2.33083 q 0,-1.07909 -0.302145,-2.02869 -0.302145,-0.99276 -0.906435,-1.68338 -0.561127,-0.73378 -1.424398,-1.12225 -0.820108,-0.43163 -1.985524,-0.43163 -1.20858,0 -2.115015,0.4748 -0.906435,0.43163 -1.553889,1.16541 -0.60429,0.73378 -0.949598,1.68338 -0.345309,0.9496 -0.4748,1.94236 z"
           style="font-style:normal;font-variant:normal;font-weight:600;font-stretch:normal;font-family:Ubuntu;-inkscape-font-specification:'Ubuntu Semi-Bold';fill:#4d4d4d;stroke-width:1.07908928"
           id="path19"
           inkscape:connector-curvature="0" />
        <path
           d="m 69.497223,189.56434 q -0.992762,3.7984 -2.158178,7.42414 -1.122253,3.58258 -2.244506,6.77668 h -4.273194 q -0.863271,-1.98552 -1.812869,-4.53218 -0.949599,-2.54665 -1.899198,-5.43861 -0.949598,-2.89195 -1.899197,-6.08606 -0.949598,-3.1941 -1.856033,-6.5177 h 5.524937 q 0.388472,1.81287 0.906435,3.92789 0.517963,2.07185 1.079089,4.27319 0.561126,2.15818 1.165416,4.23003 0.60429,2.07185 1.20858,3.79839 0.647454,-1.98552 1.251744,-4.10053 0.647454,-2.11502 1.20858,-4.23003 0.561126,-2.11502 1.035926,-4.10054 0.517963,-2.02869 0.906435,-3.7984 h 4.014212 q 0.388472,1.76971 0.863271,3.7984 0.474799,1.98552 0.992762,4.10054 0.561127,2.11501 1.165417,4.23003 0.647453,2.11501 1.294907,4.10053 0.561126,-1.72654 1.165416,-3.79839 0.60429,-2.07185 1.165417,-4.23003 0.60429,-2.20134 1.122252,-4.27319 0.517963,-2.11502 0.906435,-3.92789 h 5.395447 q -0.906435,3.3236 -1.856034,6.5177 -0.949598,3.19411 -1.899197,6.08606 -0.949598,2.89196 -1.899197,5.43861 -0.949599,2.54666 -1.856034,4.53218 h -4.230029 q -1.122253,-3.1941 -2.330833,-6.77668 -1.165417,-3.62574 -2.158179,-7.42414 z"
           style="font-style:normal;font-variant:normal;font-weight:600;font-stretch:normal;font-family:Ubuntu;-inkscape-font-specification:'Ubuntu Semi-Bold';fill:#4d4d4d;stroke-width:1.07908928"
           id="path21"
           inkscape:connector-curvature="0" />
        <path
           d="m 94.1505,200.00993 q 2.071852,0 3.02145,-0.4748 0.949599,-0.51796 0.949599,-1.72654 0,-1.12226 -1.035926,-1.85604 -0.992762,-0.73378 -3.323595,-1.59705 -1.424398,-0.51796 -2.632978,-1.07909 -1.165416,-0.60429 -2.028688,-1.38123 -0.863271,-0.77695 -1.381234,-1.85604 -0.474799,-1.12225 -0.474799,-2.7193 0,-3.10778 2.287669,-4.87748 2.287669,-1.81287 6.215554,-1.81287 1.985525,0 3.798394,0.38847 1.812874,0.34531 2.719304,0.69061 l -0.9496,4.23003 q -0.86327,-0.38847 -2.201339,-0.69061 -1.338071,-0.34531 -3.107777,-0.34531 -1.597052,0 -2.589815,0.56113 -0.992762,0.51796 -0.992762,1.64021 0,0.56113 0.172655,0.99276 0.215817,0.43164 0.690617,0.82011 0.474799,0.34531 1.251743,0.73378 0.776945,0.34531 1.899197,0.73378 1.856034,0.69062 3.150941,1.38124 1.29491,0.64745 2.11502,1.51072 0.86326,0.82011 1.25174,1.8992 0.38847,1.07909 0.38847,2.58981 0,3.23727 -2.41716,4.92065 -2.373996,1.64022 -6.819843,1.64022 -2.978287,0 -4.791157,-0.51797 -1.81287,-0.4748 -2.54665,-0.77694 l 0.906435,-4.35952 q 1.165416,0.4748 2.762468,0.90643 1.640216,0.43164 3.712067,0.43164 z"
           style="font-style:normal;font-variant:normal;font-weight:600;font-stretch:normal;font-family:Ubuntu;-inkscape-font-specification:'Ubuntu Semi-Bold';fill:#4d4d4d;stroke-width:1.07908928"
           id="path24"
           inkscape:connector-curvature="0" />
        <path
           d="M 105.91925,203.76516 V 171.1335 l 5.22279,-0.86327 v 11.17936 q 0.86327,-0.30214 1.98552,-0.51796 1.16542,-0.21582 2.28767,-0.21582 2.71931,0 4.48901,0.77695 1.81287,0.73378 2.89196,2.11501 1.07909,1.33807 1.51073,3.23727 0.4748,1.8992 0.4748,4.23003 v 12.69009 h -5.2228 v -11.86998 q 0,-1.81287 -0.25898,-3.06462 -0.21581,-1.2949 -0.77694,-2.07185 -0.51796,-0.82011 -1.4244,-1.16541 -0.90643,-0.38848 -2.2445,-0.38848 -1.03593,0 -2.11502,0.21582 -1.07909,0.21582 -1.59705,0.38847 v 17.95605 z"
           style="font-style:normal;font-variant:normal;font-weight:600;font-stretch:normal;font-family:Ubuntu;-inkscape-font-specification:'Ubuntu Semi-Bold';fill:#d40000;stroke-width:1.07908928"
           id="path26"
           inkscape:connector-curvature="0" />
        <path
           d="m 149.19302,192.4563 q 0,2.67615 -0.77694,4.87749 -0.77694,2.20134 -2.20134,3.75523 -1.4244,1.55389 -3.45309,2.41716 -1.98552,0.86327 -4.40268,0.86327 -2.41716,0 -4.40269,-0.86327 -1.98552,-0.86327 -3.40992,-2.41716 -1.4244,-1.55389 -2.2445,-3.75523 -0.77695,-2.20134 -0.77695,-4.87749 0,-2.67614 0.77695,-4.83432 0.8201,-2.20134 2.2445,-3.75523 1.46756,-1.55389 3.45309,-2.37399 1.98552,-0.86327 4.35952,-0.86327 2.37399,0 4.35952,0.86327 2.02869,0.8201 3.45308,2.37399 1.4244,1.55389 2.20135,3.75523 0.8201,2.15818 0.8201,4.83432 z m -5.35228,0 q 0,-3.36675 -1.46756,-5.30912 -1.4244,-1.98552 -4.01421,-1.98552 -2.58982,0 -4.05738,1.98552 -1.4244,1.94237 -1.4244,5.30912 0,3.40993 1.4244,5.39545 1.46756,1.98552 4.05738,1.98552 2.58981,0 4.01421,-1.98552 1.46756,-1.98552 1.46756,-5.39545 z"
           style="font-style:normal;font-variant:normal;font-weight:600;font-stretch:normal;font-family:Ubuntu;-inkscape-font-specification:'Ubuntu Semi-Bold';fill:#d40000;stroke-width:1.07908928"
           id="path28"
           inkscape:connector-curvature="0" />
        <path
           d="m 170.82567,203.07454 q -1.51073,0.38847 -3.92789,0.77695 -2.41716,0.43163 -5.30912,0.43163 -2.7193,0 -4.57534,-0.77694 -1.81287,-0.77695 -2.93512,-2.15818 -1.07909,-1.38123 -1.55389,-3.28043 -0.4748,-1.94236 -0.4748,-4.23003 v -12.64693 h 5.2228 v 11.82682 q 0,3.62574 1.03592,5.17963 1.07909,1.55389 3.71207,1.55389 0.9496,0 1.98552,-0.0863 1.07909,-0.0863 1.59706,-0.21582 v -18.25819 h 5.22279 z"
           style="font-style:normal;font-variant:normal;font-weight:600;font-stretch:normal;font-family:Ubuntu;-inkscape-font-specification:'Ubuntu Semi-Bold';fill:#d40000;stroke-width:1.07908928"
           id="path30"
           inkscape:connector-curvature="0" />
        <path
           d="m 174.60636,181.92439 q 1.51073,-0.43163 3.92789,-0.82011 2.41716,-0.38847 5.35228,-0.38847 2.76247,0 4.6185,0.77695 1.85604,0.73378 2.93513,2.11501 1.12225,1.33807 1.55389,3.28043 0.47479,1.8992 0.47479,4.18687 v 12.69009 h -5.22279 v -11.86998 q 0,-1.81287 -0.25898,-3.06462 -0.21582,-1.2949 -0.77694,-2.07185 -0.51797,-0.82011 -1.46756,-1.16541 -0.90644,-0.38848 -2.24451,-0.38848 -0.99276,0 -2.07185,0.12949 -1.07909,0.1295 -1.59705,0.21582 v 18.21503 h -5.2228 z"
           style="font-style:normal;font-variant:normal;font-weight:600;font-stretch:normal;font-family:Ubuntu;-inkscape-font-specification:'Ubuntu Semi-Bold';fill:#d40000;stroke-width:1.07908928"
           id="path32"
           inkscape:connector-curvature="0" />
        <path
           d="m 202.26042,192.41314 q 0,3.45309 1.64022,5.43861 1.64021,1.94236 4.53217,1.94236 1.25175,0 2.11502,-0.0863 0.90643,-0.12949 1.46756,-0.25898 v -12.94907 q -0.69062,-0.4748 -1.85603,-0.86327 -1.12226,-0.43164 -2.41716,-0.43164 -2.8488,0 -4.18687,1.94236 -1.29491,1.94237 -1.29491,5.26596 z m 14.97776,10.6614 q -1.55389,0.4748 -3.92788,0.86327 -2.33084,0.38848 -4.92065,0.38848 -2.67614,0 -4.79116,-0.82011 -2.11501,-0.82011 -3.62574,-2.33083 -1.46756,-1.55389 -2.28767,-3.71207 -0.77694,-2.20134 -0.77694,-4.92065 0,-2.67614 0.64745,-4.83432 0.69062,-2.20134 1.98553,-3.75523 1.2949,-1.55389 3.15094,-2.374 1.85603,-0.86327 4.27319,-0.86327 1.64022,0 2.89196,0.38847 1.25174,0.38848 2.15818,0.86328 V 171.1335 l 5.22279,-0.86327 z"
           style="font-style:normal;font-variant:normal;font-weight:600;font-stretch:normal;font-family:Ubuntu;-inkscape-font-specification:'Ubuntu Semi-Bold';fill:#d40000;stroke-width:1.07908928"
           id="path34"
           inkscape:connector-curvature="0" />
      </g>
    </g>
  </g>
</svg>
